<?xml version="1.0" encoding="utf-8"?>
<!-- Generator: Adobe Illustrator 16.0.4, SVG Export Plug-In . SVG Version: 6.00 Build 0)  -->
<!DOCTYPE svg PUBLIC "-//W3C//DTD SVG 1.1//EN" "http://www.w3.org/Graphics/SVG/1.1/DTD/svg11.dtd">
<svg version="1.1" id="Layer_1" xmlns="http://www.w3.org/2000/svg" xmlns:xlink="http://www.w3.org/1999/xlink" x="0px" y="0px"
	 width="400px" height="400px" viewBox="0 0 400 400" enable-background="new 0 0 400 400" xml:space="preserve">
<g>
	<path fill-rule="evenodd" clip-rule="evenodd" fill="#6ABE4C" d="M241.824,139.202c11.021,0,19.949,8.937,19.949,19.957
		c0,11.02-8.929,19.954-19.949,19.954s-19.957-8.934-19.957-19.954C221.867,148.139,230.804,139.202,241.824,139.202
		L241.824,139.202z M158.454,139.202c11.021,0,19.95,8.937,19.95,19.957c0,11.02-8.93,19.954-19.95,19.954
		c-11.027,0-19.957-8.934-19.957-19.954C138.498,148.139,147.427,139.202,158.454,139.202L158.454,139.202z M124.203,209.756
		c0-4.553,2.024-6.207,3.92-6.207c1.902,0,5.439,1.512,5.439,7.204c0,10.955,24.622,51.761,66.574,51.761
		c41.952,0,66.573-40.806,66.573-51.761c0-5.692,3.538-7.204,5.44-7.204c1.895,0,3.921,1.654,3.921,6.207
		c0,29.446-31.404,70.509-75.935,70.509C155.604,280.265,124.203,239.202,124.203,209.756L124.203,209.756z M200.136,313.114
		c-62.397,0-112.979-50.583-112.979-112.979S137.739,87.156,200.136,87.156c62.395,0,112.979,50.582,112.979,112.979
		S262.53,313.114,200.136,313.114L200.136,313.114z M200.136,69.868c-71.945,0-130.268,58.322-130.268,130.267
		s58.323,130.268,130.268,130.268c71.943,0,130.268-58.322,130.268-130.268S272.079,69.868,200.136,69.868L200.136,69.868z
		 M200.136,363.514c-90.232,0-163.379-73.147-163.379-163.379S109.903,36.756,200.136,36.756
		c90.229,0,163.379,73.147,163.379,163.379S290.365,363.514,200.136,363.514L200.136,363.514z M200.136,0
		C89.604,0,0,89.603,0,200.135c0,110.531,89.604,200.136,200.136,200.136c110.53,0,200.136-89.604,200.136-200.136
		C400.271,89.603,310.666,0,200.136,0L200.136,0z"/>
</g>
</svg>
